<svg xmlns="http://www.w3.org/2000/svg" xmlns:xlink="http://www.w3.org/1999/xlink" width="128" zoomAndPan="magnify" viewBox="0 0 96 95.999999" height="128" preserveAspectRatio="xMidYMid meet" version="1.0">
  <defs>
    <g />
  </defs>

  <rect x="-9.6" width="115.2" fill="#000000" y="-9.6" height="115.199999" fill-opacity="1" />
  <g fill="#ffffff" fill-opacity="1">
    <g transform="translate(4.901367, 71.624998)">
      <g>
        <path d="M 5.5 -46.375 L 16.234375 -46.375 L 16.234375 -8.75 L 39.484375 -8.75 L 39.484375 0 L 5.5 0 Z M 5.5 -46.375 " />
      </g>
    </g>
  </g>
  <g fill="#ffffff" fill-opacity="1">
    <g transform="translate(44.917045, 71.624998)">
      <g>
        <path d="M 8.671875 0.53125 C 6.867188 0.53125 5.347656 -0.0859375 4.109375 -1.328125 C 2.867188 -2.566406 2.25 -4.113281 2.25 -5.96875 C 2.25 -7.863281 2.867188 -9.394531 4.109375 -10.5625 C 5.347656 -11.738281 6.867188 -12.328125 8.671875 -12.328125 C 10.484375 -12.328125 12.007812 -11.738281 13.25 -10.5625 C 14.488281 -9.394531 15.109375 -7.863281 15.109375 -5.96875 C 15.109375 -4.113281 14.488281 -2.566406 13.25 -1.328125 C 12.007812 -0.0859375 10.484375 0.53125 8.671875 0.53125 Z M 8.671875 0.53125 " />
      </g>
    </g>
  </g>
  <g fill="#ffffff" fill-opacity="1">
    <g transform="translate(62.274842, 71.624998)">
      <g>
        <path d="M 27.765625 -1.71875 C 26.742188 -0.96875 25.492188 -0.40625 24.015625 -0.03125 C 22.535156 0.34375 20.976562 0.53125 19.34375 0.53125 C 15.101562 0.53125 11.820312 -0.550781 9.5 -2.71875 C 7.1875 -4.882812 6.03125 -8.0625 6.03125 -12.25 L 6.03125 -26.890625 L 0.53125 -26.890625 L 0.53125 -34.84375 L 6.03125 -34.84375 L 6.03125 -43.53125 L 16.359375 -43.53125 L 16.359375 -34.84375 L 25.234375 -34.84375 L 25.234375 -26.890625 L 16.359375 -26.890625 L 16.359375 -12.390625 C 16.359375 -10.890625 16.742188 -9.726562 17.515625 -8.90625 C 18.296875 -8.09375 19.390625 -7.6875 20.796875 -7.6875 C 22.429688 -7.6875 23.820312 -8.128906 24.96875 -9.015625 Z M 27.765625 -1.71875 " />
      </g>
    </g>
  </g>
</svg>